<svg enable-background="new 0 0 512 512" version="1.1" viewBox="0 0 512 512" xml:space="preserve" xmlns="http://www.w3.org/2000/svg">
		<path d="m494.93 23.893h-477.87c-9.426 0-17.067 7.642-17.067 17.067v430.08c0 9.425 7.641 17.067 17.067 17.067h477.87c9.425 0 17.067-7.641 17.067-17.067v-430.08c-1e-3 -9.425-7.642-17.067-17.068-17.067zm-356.12 430.08h-104.68v-304.92h104.68v304.92zm339.06 0h-304.92v-304.92h304.92v304.92zm0-339.06h-443.73v-56.889h443.73v56.889z" fill="#FFFFFF"/>
		<circle cx="64.865" cy="86.446" r="11.378" fill="#FFFFFF"/>
		<circle cx="110.38" cy="86.446" r="11.378" fill="#FFFFFF"/>
		<circle cx="155.89" cy="86.446" r="11.378" fill="#FFFFFF"/>
		<path d="m106.57 201.39h-39.733c-8.761 0-16.447 6.418-17.408 15.126-1.135 10.295 6.894 19.008 16.96 19.008h39.732c8.761 0 16.447-6.418 17.408-15.126 1.136-10.295-6.895-19.008-16.959-19.008z" fill="#FFFFFF"/>
		<path d="m106.57 284.44h-39.733c-8.761 0-16.447 6.418-17.408 15.126-1.135 10.295 6.894 19.008 16.96 19.008h39.732c8.761 0 16.447-6.418 17.408-15.126 1.136-10.294-6.895-19.008-16.959-19.008z" fill="#FFFFFF"/>
		<path d="m106.57 367.5h-39.733c-8.761 0-16.447 6.418-17.408 15.126-1.135 10.295 6.894 19.008 16.96 19.008h39.732c8.761 0 16.447-6.418 17.408-15.126 1.136-10.295-6.895-19.008-16.959-19.008z" fill="#FFFFFF"/>
		<path d="m367.86 301.1c41.653-38.535 14.341-108.5-42.453-108.5-56.818 0-84.095 69.973-42.453 108.5-12.365 11.439-20.125 27.789-20.125 45.922v45.511c0 9.425 7.641 17.067 17.067 17.067h91.022c9.425 0 17.067-7.641 17.067-17.067v-45.511c0-18.134-7.759-34.482-20.125-45.922zm-42.448-73.964c37.59 0 37.59 56.889 0 56.889s-37.591-56.889 0-56.889zm28.44 148.33h-56.889v-27.857c0-14.513 11.791-27.864 26.263-28.95 16.665-1.249 30.626 11.957 30.626 28.363v28.444z" fill="#FFFFFF"/>
</svg>
