<svg enable-background="new 0 0 512 512" version="1.1" viewBox="0 0 512 512" xml:space="preserve" xmlns="http://www.w3.org/2000/svg">
		<path d="m494.93 23.893h-477.87c-9.426 0-17.067 7.642-17.067 17.067v430.08c0 9.425 7.641 17.067 17.067 17.067h477.87c9.425 0 17.067-7.641 17.067-17.067v-430.08c-1e-3 -9.425-7.642-17.067-17.068-17.067zm-17.066 430.08h-443.73v-304.92h443.73v304.92zm0-339.06h-443.73v-56.889h443.73v56.889z" fill="#FFFFFF"/>
		<circle cx="64.865" cy="86.446" r="11.378" fill="#FFFFFF"/>
		<circle cx="110.38" cy="86.446" r="11.378" fill="#FFFFFF"/>
		<circle cx="155.89" cy="86.446" r="11.378" fill="#FFFFFF"/>
		<path d="m179.77 324.27h-51.2c-9.425 0-17.067 7.641-17.067 17.067v79.644c0 9.425 7.641 17.067 17.067 17.067h51.2c9.425 0 17.067-7.641 17.067-17.067v-79.644c0-9.426-7.642-17.067-17.067-17.067zm-17.067 79.644h-17.067v-45.511h17.067v45.511z" fill="#FFFFFF"/>
		<path d="m281.03 244.62h-51.2c-9.425 0-17.067 7.641-17.067 17.067v160.43c0 9.425 7.641 17.067 17.067 17.067h51.2c9.425 0 17.067-7.641 17.067-17.067v-160.43c0-9.425-7.642-17.067-17.067-17.067zm-17.067 160.43h-17.067v-126.29h17.067v126.29z" fill="#FFFFFF"/>
		<path d="m383.43 163.84h-51.2c-9.425 0-17.067 7.641-17.067 17.067v240.07c0 9.425 7.641 17.067 17.067 17.067h51.2c9.425 0 17.067-7.641 17.067-17.067v-240.07c0-9.426-7.642-17.067-17.067-17.067zm-17.067 240.07h-17.067v-205.94h17.067v205.94z" fill="#FFFFFF"/>
</svg>
